<svg width="288" height="288" viewBox="0 0 288 288" fill="none" xmlns="http://www.w3.org/2000/svg">
<path d="M214.667 148C214.667 189.239 181.239 222.667 140 222.667C98.7627 222.667 65.3333 189.239 65.3333 148C65.3333 106.763 98.7627 73.3333 140 73.3333C181.239 73.3333 214.667 106.763 214.667 148Z" fill="#250759"/>
<path d="M110.684 168.78V138.411C114.009 135.284 116.882 134.051 119.386 134.051C121.162 134.051 122.215 134.456 122.857 135.262C123.525 136.101 123.848 137.49 123.848 139.712V168.78H132.048V139.041C135.044 136.054 137.522 133.889 140.909 133.889C142.518 133.889 143.537 134.271 144.182 135.073C144.851 135.905 145.212 137.299 145.212 139.551V168.78H153.495V138.352C153.495 134.583 152.47 131.626 150.578 129.608C148.684 127.586 145.979 126.569 142.751 126.569C138.662 126.569 134.552 128.571 130.639 132.535C128.486 128.476 124.741 126.569 120.986 126.569C117.345 126.569 113.48 128.422 110.153 131.595C109.997 129.744 109.48 128.098 108.774 126.895L108.586 126.574L108.224 126.662L101.342 128.342L100.783 128.479L100.996 129.013C101.549 130.396 101.894 131.438 102.107 132.826C102.321 134.227 102.402 135.995 102.402 138.832V168.78H110.684Z" fill="#E4E5E6" stroke="#E4E5E6"/>
<path d="M181.994 168.78L181.372 167.974L163.775 145.168L177.839 128.431L178.53 127.609H168.245L168.095 127.806L154.891 145.172L154.667 145.467L154.884 145.767L171.37 168.573L171.519 168.78H181.994Z" fill="#E4E5E6" stroke="#E4E5E6"/>
</svg>
